# xmcd CD database file
#
# Track frame offsets:
#	150
#	25010
#	50035
#	80665
#
# Disc length: 1405 seconds
#
# Revision: 0
# Processed by: cddbd v1.5PL3 Copyright (c) Steve Scherf et al.
# Submitted via: CDex 1.51
#
DISCID=2b057b04
DTITLE=浜崎あゆみ - Moments
DYEAR=2004
DGENRE=JPop
TTITLE0=Moments ''Original Mix''
TTITLE1=Moments ''Acoustic Piano Version''
TTITLE2=Moments ''Flying humanoid Mix''
TTITLE3=Moments ''Original Mix -Instrumental-''
EXTD=YEAR: 2004
EXTT0=
EXTT1=
EXTT2=
EXTT3=
PLAYORDER=
